<svg width="503" height="97" viewBox="0 0 503 97" fill="none" xmlns="http://www.w3.org/2000/svg">
<path d="M37.4688 3.01137C36.5025 3.11413 35.6299 3.83272 35.3438 4.76137C34.3499 7.90827 31.8044 12.1657 31.5938 17.0114C26.7356 18.3806 22.2714 20.6394 18.375 23.6364C17.3326 23.3935 16.3001 23.1365 15.0625 22.8551C13.8895 22.545 12.5382 23.2304 12.0955 24.36C11.6528 25.4897 12.1786 26.9107 13.25 27.4801C13.4905 27.6169 13.6752 27.7241 13.9062 27.8551C7.23571 34.8966 3 44.2835 3 54.7301C3 76.3776 20.6024 93.9801 42.25 93.9801C63.8976 93.9801 81.5 76.3776 81.5 54.7301C81.5 41.4366 74.8225 29.7365 64.6875 22.6364C67.0276 19.711 68.5774 16.1262 68.75 12.0426C68.8047 10.9808 68.1023 9.92344 67.1023 9.56232C66.1022 9.2012 64.8863 9.56582 64.25 10.4176C62.2205 13.0661 59.5155 15.8298 55.9375 17.9801C54.6838 17.5118 53.4068 17.1032 52.0938 16.7614C52.9789 15.698 52.7319 13.8918 51.5938 13.1051C51.5938 13.1051 51.0478 12.7187 50.375 12.3239C50.0386 12.1265 49.6703 11.9483 49.25 11.7614C48.8297 11.5745 48.4479 11.3239 47.5 11.3239C45.9814 11.3239 45.0136 11.9453 44.3125 12.4176C43.6114 12.8898 43.125 13.3864 43.125 13.3864C42.5713 13.9189 42.2854 14.7171 42.375 15.4801C42.3346 15.48 42.2902 15.4801 42.25 15.4801C41.9482 15.4801 41.6713 15.5034 41.375 15.5114C40.5788 12.3826 40.4803 8.81497 40.2188 5.32387C40.1254 3.99082 38.798 2.87462 37.4688 3.01137Z" fill="#374151" stroke="#374151" stroke-width="6" stroke-linejoin="round"/>
<path d="M42.25 17.9705C62.5465 17.9705 79 34.424 79 54.7205C79 75.0169 62.5465 91.4705 42.25 91.4705C21.9535 91.4705 5.5 75.0169 5.5 54.7205C5.5 34.424 21.9535 17.9705 42.25 17.9705Z" fill="url(#paint0_linear)"/>
<path d="M47.281 28.9755C59.4204 36.0119 63.2654 41.5239 69.25 49.6793C61.5131 44.1139 55.5844 35.6291 42.9102 31.1609C32.1935 34.2896 27.0898 41.8913 21.8613 48.069C25.6445 40.9393 30.6746 32.909 38.3093 29.5506C27.4852 32.9922 25.4903 31.5491 14.5 25.2948C25.6954 27.841 29.7594 29.1828 38.1943 25.2948C29.9433 19.3764 35.7729 11.7214 37.7342 5.51123C38.1823 11.491 37.3502 19.3577 44.0604 24.1446C55.6928 23.4407 62.2262 17.2159 66.2594 11.9524C65.8522 21.5877 57.1304 27.8687 47.281 28.9755Z" fill="#6BB950"/>
<path d="M38.9995 25.755C41.4298 22.386 45.7662 19.6523 44.8655 15.173C44.8655 15.173 46.2328 13.8311 47.4935 13.8311C48.2255 13.8311 50.1565 15.173 50.1565 15.173C45.6824 19.7335 46.6008 24.7087 45.7857 29.5507L38.9995 25.755Z" fill="url(#paint1_linear)"/>
<path d="M108.456 70.32C107.645 70.32 106.963 70.0427 106.408 69.488C105.853 68.9333 105.576 68.2507 105.576 67.44V30.768H92.52C91.752 30.768 91.112 30.512 90.6 30C90.088 29.488 89.832 28.848 89.832 28.08C89.832 27.312 90.088 26.672 90.6 26.16C91.112 25.6053 91.752 25.328 92.52 25.328H124.392C125.16 25.328 125.8 25.6053 126.312 26.16C126.867 26.672 127.144 27.312 127.144 28.08C127.144 28.848 126.867 29.488 126.312 30C125.8 30.512 125.16 30.768 124.392 30.768H111.4V67.44C111.4 68.2507 111.101 68.9333 110.504 69.488C109.949 70.0427 109.267 70.32 108.456 70.32Z" fill="#374151"/>
<path d="M143.331 70.64C140.046 70.64 137.166 69.936 134.691 68.528C132.216 67.12 130.296 65.136 128.931 62.576C127.608 59.9733 126.947 57.008 126.947 53.68C126.947 50.352 127.608 47.408 128.931 44.848C130.296 42.2453 132.216 40.24 134.691 38.832C137.166 37.424 140.046 36.72 143.331 36.72C146.574 36.72 149.432 37.424 151.907 38.832C154.382 40.24 156.302 42.2453 157.667 44.848C159.032 47.408 159.715 50.352 159.715 53.68C159.715 57.008 159.032 59.9733 157.667 62.576C156.302 65.136 154.382 67.12 151.907 68.528C149.432 69.936 146.574 70.64 143.331 70.64ZM143.331 65.328C145.08 65.328 146.744 64.9227 148.323 64.112C149.944 63.3013 151.267 62.0213 152.291 60.272C153.358 58.5227 153.891 56.304 153.891 53.616C153.891 50.9707 153.358 48.7733 152.291 47.024C151.267 45.2747 149.944 44.016 148.323 43.248C146.744 42.4373 145.08 42.032 143.331 42.032C141.539 42.032 139.832 42.4373 138.211 43.248C136.632 44.016 135.331 45.2747 134.307 47.024C133.283 48.7733 132.771 50.9707 132.771 53.616C132.771 56.304 133.283 58.5227 134.307 60.272C135.331 62.0213 136.632 63.3013 138.211 64.112C139.832 64.9227 141.539 65.328 143.331 65.328Z" fill="#374151"/>
<path d="M170.749 70.32C169.938 70.32 169.255 70.0427 168.701 69.488C168.146 68.9333 167.868 68.2507 167.868 67.44V39.984C167.868 39.1733 168.146 38.4907 168.701 37.936C169.255 37.3387 169.938 37.04 170.749 37.04C171.559 37.04 172.242 37.3387 172.797 37.936C173.394 38.4907 173.692 39.1733 173.692 39.984V42.608C174.887 40.9013 176.316 39.4933 177.98 38.384C179.687 37.2747 181.885 36.72 184.573 36.72C186.962 36.72 189.01 37.36 190.716 38.64C192.423 39.92 193.639 41.4773 194.365 43.312C197.01 38.9173 200.935 36.72 206.141 36.72C208.53 36.72 210.514 37.3173 212.093 38.512C213.714 39.7067 214.909 41.2427 215.677 43.12C216.445 44.9973 216.829 46.96 216.829 49.008V67.44C216.829 68.2507 216.53 68.9333 215.933 69.488C215.378 70.0427 214.695 70.32 213.885 70.32C213.074 70.32 212.391 70.0427 211.837 69.488C211.282 68.9333 211.005 68.2507 211.005 67.44V50.16C211.005 47.3867 210.514 45.36 209.533 44.08C208.551 42.7573 206.866 42.096 204.477 42.096C202.301 42.096 200.487 42.672 199.037 43.824C197.629 44.9333 196.37 46.4053 195.261 48.24V67.44C195.261 68.2507 194.962 68.9333 194.365 69.488C193.81 70.0427 193.127 70.32 192.317 70.32C191.506 70.32 190.823 70.0427 190.269 69.488C189.714 68.9333 189.437 68.2507 189.437 67.44V50.16C189.437 47.3867 188.946 45.36 187.965 44.08C186.983 42.7573 185.298 42.096 182.909 42.096C180.733 42.096 178.919 42.672 177.468 43.824C176.06 44.9333 174.802 46.4053 173.692 48.24V67.44C173.692 68.2507 173.394 68.9333 172.797 69.488C172.242 70.0427 171.559 70.32 170.749 70.32Z" fill="#374151"/>
<path d="M234.939 70.64C233.061 70.64 231.312 70.256 229.691 69.488C228.112 68.72 226.853 67.6107 225.915 66.16C224.976 64.6667 224.507 62.96 224.507 61.04C224.507 57.8827 225.744 55.3653 228.219 53.488C230.736 51.6107 234.405 50.672 239.227 50.672H246.971V50.16C246.971 47.344 246.267 45.3173 244.859 44.08C243.493 42.8427 241.339 42.224 238.395 42.224C236.773 42.224 235.322 42.352 234.042 42.608C232.805 42.864 231.419 43.248 229.883 43.76C229.541 43.8453 229.264 43.888 229.051 43.888C228.411 43.888 227.856 43.6533 227.387 43.184C226.917 42.7147 226.682 42.1387 226.682 41.456C226.682 40.304 227.237 39.4933 228.346 39.024C231.973 37.488 235.664 36.72 239.419 36.72C242.363 36.72 244.837 37.3173 246.842 38.512C248.89 39.7067 250.384 41.264 251.323 43.184C252.304 45.0613 252.795 47.1093 252.795 49.328V67.44C252.795 68.2507 252.496 68.9333 251.898 69.488C251.344 70.0427 250.661 70.32 249.851 70.32C249.04 70.32 248.357 70.0427 247.803 69.488C247.248 68.9333 246.971 68.2507 246.971 67.44V65.776C243.813 69.0187 239.803 70.64 234.939 70.64ZM237.115 65.52C238.992 65.52 240.805 65.072 242.555 64.176C244.304 63.2373 245.776 62.0853 246.971 60.72V55.344H239.995C233.552 55.344 230.331 57.0293 230.331 60.4C230.331 61.936 230.843 63.1733 231.867 64.112C232.933 65.0507 234.683 65.52 237.115 65.52Z" fill="#374151"/>
<path d="M273.07 70.64C266.841 70.64 263.726 67.824 263.726 62.192V42.352H259.182C258.841 42.352 258.542 42.2453 258.286 42.032C258.073 41.776 257.966 41.4773 257.966 41.136C257.966 40.7093 258.158 40.3467 258.542 40.048L267.246 31.536C267.63 31.152 267.993 30.96 268.334 30.96C268.675 30.96 268.953 31.088 269.166 31.344C269.422 31.6 269.55 31.8987 269.55 32.24V37.36H276.782C277.507 37.36 278.105 37.5947 278.574 38.064C279.043 38.5333 279.278 39.1307 279.278 39.856C279.278 40.5387 279.043 41.136 278.574 41.648C278.105 42.1173 277.507 42.352 276.782 42.352H269.55V61.68C269.55 63.344 269.934 64.4107 270.702 64.88C271.513 65.3067 272.515 65.52 273.71 65.52C274.563 65.52 275.417 65.392 276.27 65.136C276.441 65.0933 276.611 65.0507 276.782 65.008C276.995 64.9653 277.251 64.944 277.55 64.944C278.147 64.944 278.681 65.1787 279.15 65.648C279.619 66.0747 279.854 66.608 279.854 67.248C279.854 68.2293 279.363 68.976 278.382 69.488C276.718 70.256 274.947 70.64 273.07 70.64Z" fill="#374151"/>
<path d="M300.206 70.64C296.921 70.64 294.041 69.936 291.566 68.528C289.091 67.12 287.171 65.136 285.806 62.576C284.483 59.9733 283.822 57.008 283.822 53.68C283.822 50.352 284.483 47.408 285.806 44.848C287.171 42.2453 289.091 40.24 291.566 38.832C294.041 37.424 296.921 36.72 300.206 36.72C303.449 36.72 306.307 37.424 308.782 38.832C311.257 40.24 313.177 42.2453 314.542 44.848C315.907 47.408 316.59 50.352 316.59 53.68C316.59 57.008 315.907 59.9733 314.542 62.576C313.177 65.136 311.257 67.12 308.782 68.528C306.307 69.936 303.449 70.64 300.206 70.64ZM300.206 65.328C301.955 65.328 303.619 64.9227 305.198 64.112C306.819 63.3013 308.142 62.0213 309.166 60.272C310.233 58.5227 310.766 56.304 310.766 53.616C310.766 50.9707 310.233 48.7733 309.166 47.024C308.142 45.2747 306.819 44.016 305.198 43.248C303.619 42.4373 301.955 42.032 300.206 42.032C298.414 42.032 296.707 42.4373 295.086 43.248C293.507 44.016 292.206 45.2747 291.182 47.024C290.158 48.7733 289.646 50.9707 289.646 53.616C289.646 56.304 290.158 58.5227 291.182 60.272C292.206 62.0213 293.507 63.3013 295.086 64.112C296.707 64.9227 298.414 65.328 300.206 65.328Z" fill="#374151"/>
<path d="M327.9 70.32C327.09 70.32 326.407 70.0427 325.853 69.488C325.298 68.9333 325.021 68.2507 325.021 67.44V29.232C325.021 28.08 325.426 27.0987 326.236 26.288C327.047 25.4347 328.028 25.008 329.18 25.008H331.292C332.146 25.008 332.914 25.264 333.596 25.776C334.322 26.288 334.855 26.928 335.197 27.696L349.724 63.92L364.253 27.696C364.594 26.928 365.106 26.288 365.789 25.776C366.514 25.264 367.303 25.008 368.156 25.008H370.268C371.42 25.008 372.402 25.4347 373.212 26.288C374.023 27.0987 374.428 28.08 374.428 29.232V67.44C374.428 68.2507 374.151 68.9333 373.596 69.488C373.042 70.0427 372.359 70.32 371.548 70.32C370.738 70.32 370.034 70.0427 369.436 69.488C368.882 68.9333 368.604 68.2507 368.604 67.44V31.088L353.82 67.632C353.479 68.4427 352.924 69.104 352.156 69.616C351.431 70.0853 350.62 70.32 349.724 70.32C348.828 70.32 347.997 70.0853 347.229 69.616C346.503 69.104 345.97 68.4427 345.629 67.632L330.844 31.088V67.44C330.844 68.2507 330.546 68.9333 329.949 69.488C329.394 70.0427 328.711 70.32 327.9 70.32Z" fill="#374151"/>
<path d="M399.398 70.64C394.193 70.64 390.118 69.168 387.174 66.224C384.273 63.2373 382.822 59.056 382.822 53.68C382.822 50.6507 383.377 47.856 384.486 45.296C385.595 42.736 387.302 40.6667 389.606 39.088C391.91 37.5093 394.747 36.72 398.118 36.72C401.275 36.72 404.006 37.4667 406.31 38.96C408.614 40.4107 410.363 42.3733 411.558 44.848C412.753 47.28 413.35 49.9467 413.35 52.848C413.35 53.6587 413.073 54.3413 412.518 54.896C412.006 55.4507 411.302 55.728 410.406 55.728H388.71C389.051 58.7147 390.161 61.04 392.038 62.704C393.915 64.368 396.539 65.2 399.91 65.2C401.702 65.2 403.259 65.0293 404.582 64.688C405.947 64.3467 407.27 63.856 408.55 63.216C408.891 63.0453 409.275 62.96 409.702 62.96C410.385 62.96 410.982 63.1947 411.494 63.664C412.006 64.1333 412.262 64.7307 412.262 65.456C412.262 66.3947 411.707 67.184 410.598 67.824C408.934 68.7627 407.291 69.4667 405.67 69.936C404.049 70.4053 401.958 70.64 399.398 70.64ZM407.59 50.992C407.462 48.9013 406.907 47.152 405.926 45.744C404.987 44.336 403.814 43.312 402.406 42.672C400.998 41.9893 399.569 41.648 398.118 41.648C396.667 41.648 395.238 41.9893 393.83 42.672C392.422 43.312 391.249 44.336 390.31 45.744C389.371 47.152 388.838 48.9013 388.71 50.992H407.59Z" fill="#374151"/>
<path d="M432.32 70.64C426.091 70.64 422.976 67.824 422.976 62.192V42.352H418.432C418.091 42.352 417.792 42.2453 417.536 42.032C417.323 41.776 417.216 41.4773 417.216 41.136C417.216 40.7093 417.408 40.3467 417.792 40.048L426.496 31.536C426.88 31.152 427.243 30.96 427.584 30.96C427.925 30.96 428.203 31.088 428.416 31.344C428.672 31.6 428.8 31.8987 428.8 32.24V37.36H436.032C436.757 37.36 437.355 37.5947 437.824 38.064C438.293 38.5333 438.528 39.1307 438.528 39.856C438.528 40.5387 438.293 41.136 437.824 41.648C437.355 42.1173 436.757 42.352 436.032 42.352H428.8V61.68C428.8 63.344 429.184 64.4107 429.952 64.88C430.763 65.3067 431.765 65.52 432.96 65.52C433.813 65.52 434.667 65.392 435.52 65.136C435.691 65.0933 435.861 65.0507 436.032 65.008C436.245 64.9653 436.501 64.944 436.8 64.944C437.397 64.944 437.931 65.1787 438.4 65.648C438.869 66.0747 439.104 66.608 439.104 67.248C439.104 68.2293 438.613 68.976 437.632 69.488C435.968 70.256 434.197 70.64 432.32 70.64Z" fill="#374151"/>
<path d="M459.648 70.64C454.443 70.64 450.368 69.168 447.424 66.224C444.523 63.2373 443.072 59.056 443.072 53.68C443.072 50.6507 443.627 47.856 444.736 45.296C445.845 42.736 447.552 40.6667 449.856 39.088C452.16 37.5093 454.997 36.72 458.368 36.72C461.525 36.72 464.256 37.4667 466.56 38.96C468.864 40.4107 470.613 42.3733 471.808 44.848C473.003 47.28 473.6 49.9467 473.6 52.848C473.6 53.6587 473.323 54.3413 472.768 54.896C472.256 55.4507 471.552 55.728 470.656 55.728H448.96C449.301 58.7147 450.411 61.04 452.288 62.704C454.165 64.368 456.789 65.2 460.16 65.2C461.952 65.2 463.509 65.0293 464.832 64.688C466.197 64.3467 467.52 63.856 468.8 63.216C469.141 63.0453 469.525 62.96 469.952 62.96C470.635 62.96 471.232 63.1947 471.744 63.664C472.256 64.1333 472.512 64.7307 472.512 65.456C472.512 66.3947 471.957 67.184 470.848 67.824C469.184 68.7627 467.541 69.4667 465.92 69.936C464.299 70.4053 462.208 70.64 459.648 70.64ZM467.84 50.992C467.712 48.9013 467.157 47.152 466.176 45.744C465.237 44.336 464.064 43.312 462.656 42.672C461.248 41.9893 459.819 41.648 458.368 41.648C456.917 41.648 455.488 41.9893 454.08 42.672C452.672 43.312 451.499 44.336 450.56 45.744C449.621 47.152 449.088 48.9013 448.96 50.992H467.84Z" fill="#374151"/>
<path d="M484.186 70.32C483.375 70.32 482.693 70.0427 482.138 69.488C481.583 68.9333 481.306 68.2507 481.306 67.44V39.984C481.306 39.1733 481.583 38.4907 482.138 37.936C482.693 37.3387 483.375 37.04 484.186 37.04C484.997 37.04 485.679 37.3387 486.234 37.936C486.831 38.4907 487.13 39.1733 487.13 39.984V42.736C490.117 38.7253 493.466 36.72 497.178 36.72H497.498C498.309 36.72 498.97 36.9973 499.482 37.552C500.037 38.1067 500.314 38.7893 500.314 39.6C500.314 40.4107 500.037 41.072 499.482 41.584C498.927 42.096 498.223 42.352 497.37 42.352H497.05C495.002 42.352 493.125 42.864 491.418 43.888C489.711 44.8693 488.282 46.2347 487.13 47.984V67.44C487.13 68.2507 486.831 68.9333 486.234 69.488C485.679 70.0427 484.997 70.32 484.186 70.32Z" fill="#374151"/>
<path d="M108.456 70.32C107.645 70.32 106.963 70.0427 106.408 69.488C105.853 68.9333 105.576 68.2507 105.576 67.44V30.768H92.52C91.752 30.768 91.112 30.512 90.6 30C90.088 29.488 89.832 28.848 89.832 28.08C89.832 27.312 90.088 26.672 90.6 26.16C91.112 25.6053 91.752 25.328 92.52 25.328H124.392C125.16 25.328 125.8 25.6053 126.312 26.16C126.867 26.672 127.144 27.312 127.144 28.08C127.144 28.848 126.867 29.488 126.312 30C125.8 30.512 125.16 30.768 124.392 30.768H111.4V67.44C111.4 68.2507 111.101 68.9333 110.504 69.488C109.949 70.0427 109.267 70.32 108.456 70.32Z" stroke="#374151" stroke-width="5" stroke-linecap="round"/>
<path d="M143.331 70.64C140.046 70.64 137.166 69.936 134.691 68.528C132.216 67.12 130.296 65.136 128.931 62.576C127.608 59.9733 126.947 57.008 126.947 53.68C126.947 50.352 127.608 47.408 128.931 44.848C130.296 42.2453 132.216 40.24 134.691 38.832C137.166 37.424 140.046 36.72 143.331 36.72C146.574 36.72 149.432 37.424 151.907 38.832C154.382 40.24 156.302 42.2453 157.667 44.848C159.032 47.408 159.715 50.352 159.715 53.68C159.715 57.008 159.032 59.9733 157.667 62.576C156.302 65.136 154.382 67.12 151.907 68.528C149.432 69.936 146.574 70.64 143.331 70.64ZM143.331 65.328C145.08 65.328 146.744 64.9227 148.323 64.112C149.944 63.3013 151.267 62.0213 152.291 60.272C153.358 58.5227 153.891 56.304 153.891 53.616C153.891 50.9707 153.358 48.7733 152.291 47.024C151.267 45.2747 149.944 44.016 148.323 43.248C146.744 42.4373 145.08 42.032 143.331 42.032C141.539 42.032 139.832 42.4373 138.211 43.248C136.632 44.016 135.331 45.2747 134.307 47.024C133.283 48.7733 132.771 50.9707 132.771 53.616C132.771 56.304 133.283 58.5227 134.307 60.272C135.331 62.0213 136.632 63.3013 138.211 64.112C139.832 64.9227 141.539 65.328 143.331 65.328Z" stroke="#374151" stroke-width="5" stroke-linecap="round"/>
<path d="M170.749 70.32C169.938 70.32 169.255 70.0427 168.701 69.488C168.146 68.9333 167.868 68.2507 167.868 67.44V39.984C167.868 39.1733 168.146 38.4907 168.701 37.936C169.255 37.3387 169.938 37.04 170.749 37.04C171.559 37.04 172.242 37.3387 172.797 37.936C173.394 38.4907 173.692 39.1733 173.692 39.984V42.608C174.887 40.9013 176.316 39.4933 177.98 38.384C179.687 37.2747 181.885 36.72 184.573 36.72C186.962 36.72 189.01 37.36 190.716 38.64C192.423 39.92 193.639 41.4773 194.365 43.312C197.01 38.9173 200.935 36.72 206.141 36.72C208.53 36.72 210.514 37.3173 212.093 38.512C213.714 39.7067 214.909 41.2427 215.677 43.12C216.445 44.9973 216.829 46.96 216.829 49.008V67.44C216.829 68.2507 216.53 68.9333 215.933 69.488C215.378 70.0427 214.695 70.32 213.885 70.32C213.074 70.32 212.391 70.0427 211.837 69.488C211.282 68.9333 211.005 68.2507 211.005 67.44V50.16C211.005 47.3867 210.514 45.36 209.533 44.08C208.551 42.7573 206.866 42.096 204.477 42.096C202.301 42.096 200.487 42.672 199.037 43.824C197.629 44.9333 196.37 46.4053 195.261 48.24V67.44C195.261 68.2507 194.962 68.9333 194.365 69.488C193.81 70.0427 193.127 70.32 192.317 70.32C191.506 70.32 190.823 70.0427 190.269 69.488C189.714 68.9333 189.437 68.2507 189.437 67.44V50.16C189.437 47.3867 188.946 45.36 187.965 44.08C186.983 42.7573 185.298 42.096 182.909 42.096C180.733 42.096 178.919 42.672 177.468 43.824C176.06 44.9333 174.802 46.4053 173.692 48.24V67.44C173.692 68.2507 173.394 68.9333 172.797 69.488C172.242 70.0427 171.559 70.32 170.749 70.32Z" stroke="#374151" stroke-width="5" stroke-linecap="round"/>
<path d="M234.939 70.64C233.061 70.64 231.312 70.256 229.691 69.488C228.112 68.72 226.853 67.6107 225.915 66.16C224.976 64.6667 224.507 62.96 224.507 61.04C224.507 57.8827 225.744 55.3653 228.219 53.488C230.736 51.6107 234.405 50.672 239.227 50.672H246.971V50.16C246.971 47.344 246.267 45.3173 244.859 44.08C243.493 42.8427 241.339 42.224 238.395 42.224C236.773 42.224 235.322 42.352 234.042 42.608C232.805 42.864 231.419 43.248 229.883 43.76C229.541 43.8453 229.264 43.888 229.051 43.888C228.411 43.888 227.856 43.6533 227.387 43.184C226.917 42.7147 226.682 42.1387 226.682 41.456C226.682 40.304 227.237 39.4933 228.346 39.024C231.973 37.488 235.664 36.72 239.419 36.72C242.363 36.72 244.837 37.3173 246.842 38.512C248.89 39.7067 250.384 41.264 251.323 43.184C252.304 45.0613 252.795 47.1093 252.795 49.328V67.44C252.795 68.2507 252.496 68.9333 251.898 69.488C251.344 70.0427 250.661 70.32 249.851 70.32C249.04 70.32 248.357 70.0427 247.803 69.488C247.248 68.9333 246.971 68.2507 246.971 67.44V65.776C243.813 69.0187 239.803 70.64 234.939 70.64ZM237.115 65.52C238.992 65.52 240.805 65.072 242.555 64.176C244.304 63.2373 245.776 62.0853 246.971 60.72V55.344H239.995C233.552 55.344 230.331 57.0293 230.331 60.4C230.331 61.936 230.843 63.1733 231.867 64.112C232.933 65.0507 234.683 65.52 237.115 65.52Z" stroke="#374151" stroke-width="5" stroke-linecap="round"/>
<path d="M273.07 70.64C266.841 70.64 263.726 67.824 263.726 62.192V42.352H259.182C258.841 42.352 258.542 42.2453 258.286 42.032C258.073 41.776 257.966 41.4773 257.966 41.136C257.966 40.7093 258.158 40.3467 258.542 40.048L267.246 31.536C267.63 31.152 267.993 30.96 268.334 30.96C268.675 30.96 268.953 31.088 269.166 31.344C269.422 31.6 269.55 31.8987 269.55 32.24V37.36H276.782C277.507 37.36 278.105 37.5947 278.574 38.064C279.043 38.5333 279.278 39.1307 279.278 39.856C279.278 40.5387 279.043 41.136 278.574 41.648C278.105 42.1173 277.507 42.352 276.782 42.352H269.55V61.68C269.55 63.344 269.934 64.4107 270.702 64.88C271.513 65.3067 272.515 65.52 273.71 65.52C274.563 65.52 275.417 65.392 276.27 65.136C276.441 65.0933 276.611 65.0507 276.782 65.008C276.995 64.9653 277.251 64.944 277.55 64.944C278.147 64.944 278.681 65.1787 279.15 65.648C279.619 66.0747 279.854 66.608 279.854 67.248C279.854 68.2293 279.363 68.976 278.382 69.488C276.718 70.256 274.947 70.64 273.07 70.64Z" stroke="#374151" stroke-width="5" stroke-linecap="round"/>
<path d="M300.206 70.64C296.921 70.64 294.041 69.936 291.566 68.528C289.091 67.12 287.171 65.136 285.806 62.576C284.483 59.9733 283.822 57.008 283.822 53.68C283.822 50.352 284.483 47.408 285.806 44.848C287.171 42.2453 289.091 40.24 291.566 38.832C294.041 37.424 296.921 36.72 300.206 36.72C303.449 36.72 306.307 37.424 308.782 38.832C311.257 40.24 313.177 42.2453 314.542 44.848C315.907 47.408 316.59 50.352 316.59 53.68C316.59 57.008 315.907 59.9733 314.542 62.576C313.177 65.136 311.257 67.12 308.782 68.528C306.307 69.936 303.449 70.64 300.206 70.64ZM300.206 65.328C301.955 65.328 303.619 64.9227 305.198 64.112C306.819 63.3013 308.142 62.0213 309.166 60.272C310.233 58.5227 310.766 56.304 310.766 53.616C310.766 50.9707 310.233 48.7733 309.166 47.024C308.142 45.2747 306.819 44.016 305.198 43.248C303.619 42.4373 301.955 42.032 300.206 42.032C298.414 42.032 296.707 42.4373 295.086 43.248C293.507 44.016 292.206 45.2747 291.182 47.024C290.158 48.7733 289.646 50.9707 289.646 53.616C289.646 56.304 290.158 58.5227 291.182 60.272C292.206 62.0213 293.507 63.3013 295.086 64.112C296.707 64.9227 298.414 65.328 300.206 65.328Z" stroke="#374151" stroke-width="5" stroke-linecap="round"/>
<path d="M327.9 70.32C327.09 70.32 326.407 70.0427 325.853 69.488C325.298 68.9333 325.021 68.2507 325.021 67.44V29.232C325.021 28.08 325.426 27.0987 326.236 26.288C327.047 25.4347 328.028 25.008 329.18 25.008H331.292C332.146 25.008 332.914 25.264 333.596 25.776C334.322 26.288 334.855 26.928 335.197 27.696L349.724 63.92L364.253 27.696C364.594 26.928 365.106 26.288 365.789 25.776C366.514 25.264 367.303 25.008 368.156 25.008H370.268C371.42 25.008 372.402 25.4347 373.212 26.288C374.023 27.0987 374.428 28.08 374.428 29.232V67.44C374.428 68.2507 374.151 68.9333 373.596 69.488C373.042 70.0427 372.359 70.32 371.548 70.32C370.738 70.32 370.034 70.0427 369.436 69.488C368.882 68.9333 368.604 68.2507 368.604 67.44V31.088L353.82 67.632C353.479 68.4427 352.924 69.104 352.156 69.616C351.431 70.0853 350.62 70.32 349.724 70.32C348.828 70.32 347.997 70.0853 347.229 69.616C346.503 69.104 345.97 68.4427 345.629 67.632L330.844 31.088V67.44C330.844 68.2507 330.546 68.9333 329.949 69.488C329.394 70.0427 328.711 70.32 327.9 70.32Z" stroke="#374151" stroke-width="5" stroke-linecap="round"/>
<path d="M399.398 70.64C394.193 70.64 390.118 69.168 387.174 66.224C384.273 63.2373 382.822 59.056 382.822 53.68C382.822 50.6507 383.377 47.856 384.486 45.296C385.595 42.736 387.302 40.6667 389.606 39.088C391.91 37.5093 394.747 36.72 398.118 36.72C401.275 36.72 404.006 37.4667 406.31 38.96C408.614 40.4107 410.363 42.3733 411.558 44.848C412.753 47.28 413.35 49.9467 413.35 52.848C413.35 53.6587 413.073 54.3413 412.518 54.896C412.006 55.4507 411.302 55.728 410.406 55.728H388.71C389.051 58.7147 390.161 61.04 392.038 62.704C393.915 64.368 396.539 65.2 399.91 65.2C401.702 65.2 403.259 65.0293 404.582 64.688C405.947 64.3467 407.27 63.856 408.55 63.216C408.891 63.0453 409.275 62.96 409.702 62.96C410.385 62.96 410.982 63.1947 411.494 63.664C412.006 64.1333 412.262 64.7307 412.262 65.456C412.262 66.3947 411.707 67.184 410.598 67.824C408.934 68.7627 407.291 69.4667 405.67 69.936C404.049 70.4053 401.958 70.64 399.398 70.64ZM407.59 50.992C407.462 48.9013 406.907 47.152 405.926 45.744C404.987 44.336 403.814 43.312 402.406 42.672C400.998 41.9893 399.569 41.648 398.118 41.648C396.667 41.648 395.238 41.9893 393.83 42.672C392.422 43.312 391.249 44.336 390.31 45.744C389.371 47.152 388.838 48.9013 388.71 50.992H407.59Z" stroke="#374151" stroke-width="5" stroke-linecap="round"/>
<path d="M432.32 70.64C426.091 70.64 422.976 67.824 422.976 62.192V42.352H418.432C418.091 42.352 417.792 42.2453 417.536 42.032C417.323 41.776 417.216 41.4773 417.216 41.136C417.216 40.7093 417.408 40.3467 417.792 40.048L426.496 31.536C426.88 31.152 427.243 30.96 427.584 30.96C427.925 30.96 428.203 31.088 428.416 31.344C428.672 31.6 428.8 31.8987 428.8 32.24V37.36H436.032C436.757 37.36 437.355 37.5947 437.824 38.064C438.293 38.5333 438.528 39.1307 438.528 39.856C438.528 40.5387 438.293 41.136 437.824 41.648C437.355 42.1173 436.757 42.352 436.032 42.352H428.8V61.68C428.8 63.344 429.184 64.4107 429.952 64.88C430.763 65.3067 431.765 65.52 432.96 65.52C433.813 65.52 434.667 65.392 435.52 65.136C435.691 65.0933 435.861 65.0507 436.032 65.008C436.245 64.9653 436.501 64.944 436.8 64.944C437.397 64.944 437.931 65.1787 438.4 65.648C438.869 66.0747 439.104 66.608 439.104 67.248C439.104 68.2293 438.613 68.976 437.632 69.488C435.968 70.256 434.197 70.64 432.32 70.64Z" stroke="#374151" stroke-width="5" stroke-linecap="round"/>
<path d="M459.648 70.64C454.443 70.64 450.368 69.168 447.424 66.224C444.523 63.2373 443.072 59.056 443.072 53.68C443.072 50.6507 443.627 47.856 444.736 45.296C445.845 42.736 447.552 40.6667 449.856 39.088C452.16 37.5093 454.997 36.72 458.368 36.72C461.525 36.72 464.256 37.4667 466.56 38.96C468.864 40.4107 470.613 42.3733 471.808 44.848C473.003 47.28 473.6 49.9467 473.6 52.848C473.6 53.6587 473.323 54.3413 472.768 54.896C472.256 55.4507 471.552 55.728 470.656 55.728H448.96C449.301 58.7147 450.411 61.04 452.288 62.704C454.165 64.368 456.789 65.2 460.16 65.2C461.952 65.2 463.509 65.0293 464.832 64.688C466.197 64.3467 467.52 63.856 468.8 63.216C469.141 63.0453 469.525 62.96 469.952 62.96C470.635 62.96 471.232 63.1947 471.744 63.664C472.256 64.1333 472.512 64.7307 472.512 65.456C472.512 66.3947 471.957 67.184 470.848 67.824C469.184 68.7627 467.541 69.4667 465.92 69.936C464.299 70.4053 462.208 70.64 459.648 70.64ZM467.84 50.992C467.712 48.9013 467.157 47.152 466.176 45.744C465.237 44.336 464.064 43.312 462.656 42.672C461.248 41.9893 459.819 41.648 458.368 41.648C456.917 41.648 455.488 41.9893 454.08 42.672C452.672 43.312 451.499 44.336 450.56 45.744C449.621 47.152 449.088 48.9013 448.96 50.992H467.84Z" stroke="#374151" stroke-width="5" stroke-linecap="round"/>
<path d="M484.186 70.32C483.375 70.32 482.693 70.0427 482.138 69.488C481.583 68.9333 481.306 68.2507 481.306 67.44V39.984C481.306 39.1733 481.583 38.4907 482.138 37.936C482.693 37.3387 483.375 37.04 484.186 37.04C484.997 37.04 485.679 37.3387 486.234 37.936C486.831 38.4907 487.13 39.1733 487.13 39.984V42.736C490.117 38.7253 493.466 36.72 497.178 36.72H497.498C498.309 36.72 498.97 36.9973 499.482 37.552C500.037 38.1067 500.314 38.7893 500.314 39.6C500.314 40.4107 500.037 41.072 499.482 41.584C498.927 42.096 498.223 42.352 497.37 42.352H497.05C495.002 42.352 493.125 42.864 491.418 43.888C489.711 44.8693 488.282 46.2347 487.13 47.984V67.44C487.13 68.2507 486.831 68.9333 486.234 69.488C485.679 70.0427 484.997 70.32 484.186 70.32Z" stroke="#374151" stroke-width="5" stroke-linecap="round"/>
<defs>
<linearGradient id="paint0_linear" x1="42.25" y1="91.4705" x2="42.25" y2="17.9705" gradientUnits="userSpaceOnUse">
<stop stop-color="#DC2626"/>
<stop offset="0.9994" stop-color="#F39A86"/>
<stop offset="0.9995" stop-color="#F26239"/>
<stop offset="0.9996" stop-color="#F37742"/>
<stop offset="0.9997" stop-color="#F26D47"/>
<stop offset="0.9998" stop-color="#F26E47"/>
<stop offset="0.9999" stop-color="#F26D46"/>
<stop offset="1" stop-color="#FCA5A5"/>
</linearGradient>
<linearGradient id="paint1_linear" x1="41.99" y1="25.6975" x2="46.4758" y2="14.6554" gradientUnits="userSpaceOnUse">
<stop stop-color="#76BA43"/>
<stop offset="1" stop-color="#0D911B"/>
</linearGradient>
</defs>
</svg>
