<svg width="740" height="150" viewBox="0 0 740 150" fill="none" xmlns="http://www.w3.org/2000/svg">
<g filter="url(#filter0_d)">
<path d="M59.0096 7.01649C57.6076 7.16558 56.3416 8.20817 55.9265 9.55551C54.4845 14.1212 50.7913 20.2982 50.4857 27.3286C43.4372 29.3151 36.9602 32.5924 31.3071 36.9406C29.7946 36.5882 28.2966 36.2154 26.5011 35.8071C24.7992 35.3571 22.8386 36.3516 22.1963 37.9905C21.554 39.6295 22.3169 41.6913 23.8714 42.5174C24.2204 42.7159 24.4883 42.8714 24.8235 43.0615C15.1454 53.2777 9 66.8969 9 82.0535C9 113.461 34.5388 139 65.9465 139C97.3542 139 122.893 113.461 122.893 82.0535C122.893 62.7664 113.205 45.791 98.5003 35.4897C101.895 31.2454 104.144 26.0444 104.394 20.1196C104.474 18.5791 103.455 17.045 102.004 16.5211C100.553 15.9971 98.7888 16.5261 97.8656 17.762C94.921 21.6046 90.9965 25.6144 85.8052 28.7342C83.9863 28.0547 82.1335 27.4618 80.2285 26.9659C81.5127 25.423 81.1544 22.8026 79.503 21.6612C79.503 21.6612 78.711 21.1005 77.7348 20.5277C77.2467 20.2413 76.7123 19.9827 76.1026 19.7116C75.4928 19.4404 74.9388 19.0768 73.5636 19.0768C71.3603 19.0768 69.9561 19.9785 68.9389 20.6637C67.9218 21.3488 67.216 22.0692 67.216 22.0692C66.4126 22.8419 65.9978 24 66.1279 25.107C66.0693 25.1068 66.0048 25.107 65.9465 25.107C65.5086 25.107 65.1069 25.1407 64.677 25.1523C63.5218 20.6129 63.379 15.4367 62.9994 10.3716C62.864 8.43755 60.9382 6.81809 59.0096 7.01649Z" fill="#1F2937" stroke="#1F2937" stroke-width="6" stroke-linejoin="round"/>
<path d="M65.9465 28.7201C95.394 28.7201 119.266 52.592 119.266 82.0395C119.266 111.487 95.394 135.359 65.9465 135.359C36.499 135.359 12.6272 111.487 12.6272 82.0395C12.6272 52.592 36.499 28.7201 65.9465 28.7201Z" fill="url(#paint0_linear)"/>
<path d="M73.2458 44.687C90.8584 54.8958 96.437 62.893 105.12 74.7254C93.8947 66.6508 85.2929 54.3405 66.9043 47.8577C51.3558 52.397 43.9511 63.4261 36.3653 72.3891C41.8541 62.0449 49.1522 50.3939 60.2291 45.5214C44.5248 50.5147 41.6304 48.4209 25.6849 39.3468C41.9279 43.041 47.8244 44.9878 60.0622 39.3468C48.0911 30.76 56.5491 19.6536 59.3947 10.6435C60.0448 19.3193 58.8376 30.7328 68.5731 37.678C85.4502 36.6567 94.9293 27.6253 100.781 19.9887C100.19 33.9682 87.536 43.0812 73.2458 44.687Z" fill="#6BB950"/>
<path d="M61.2304 40.0144C64.7565 35.1265 71.048 31.1603 69.7413 24.6615C69.7413 24.6615 71.7251 22.7144 73.5541 22.7144C74.6161 22.7144 77.4178 24.6615 77.4178 24.6615C70.9265 31.2781 72.2589 38.4965 71.0764 45.5215L61.2304 40.0144Z" fill="url(#paint1_linear)"/>
<path d="M162.041 104.537C160.864 104.537 159.873 104.136 159.068 103.334C158.262 102.532 157.86 101.544 157.86 100.372V47.331H138.903C137.788 47.331 136.858 46.9607 136.115 46.2202C135.372 45.4797 135 44.554 135 43.4432C135 42.3324 135.372 41.4067 136.115 40.6662C136.858 39.864 137.788 39.4628 138.903 39.4628H185.179C186.295 39.4628 187.224 39.864 187.967 40.6662C188.773 41.4067 189.175 42.3324 189.175 43.4432C189.175 44.554 188.773 45.4797 187.967 46.2202C187.224 46.9607 186.295 47.331 185.179 47.331H166.316V100.372C166.316 101.544 165.882 102.532 165.015 103.334C164.209 104.136 163.218 104.537 162.041 104.537Z" fill="#1F2937"/>
<path d="M212.678 105C207.908 105 203.726 103.982 200.133 101.945C196.54 99.9088 193.752 97.0393 191.77 93.3366C189.849 89.5722 188.889 85.2833 188.889 80.4698C188.889 75.6564 189.849 71.3983 191.77 67.6957C193.752 63.9313 196.54 61.0309 200.133 58.9944C203.726 56.9579 207.908 55.9397 212.678 55.9397C217.386 55.9397 221.537 56.9579 225.13 58.9944C228.723 61.0309 231.511 63.9313 233.493 67.6957C235.476 71.3983 236.467 75.6564 236.467 80.4698C236.467 85.2833 235.476 89.5722 233.493 93.3366C231.511 97.0393 228.723 99.9088 225.13 101.945C221.537 103.982 217.386 105 212.678 105ZM212.678 97.317C215.218 97.317 217.634 96.7307 219.926 95.5582C222.28 94.3857 224.201 92.5344 225.687 90.0042C227.236 87.4741 228.011 84.2651 228.011 80.3773C228.011 76.5512 227.236 73.3731 225.687 70.8429C224.201 68.3128 222.28 66.4923 219.926 65.3815C217.634 64.209 215.218 63.6227 212.678 63.6227C210.076 63.6227 207.598 64.209 205.244 65.3815C202.952 66.4923 201.062 68.3128 199.576 70.8429C198.089 73.3731 197.345 76.5512 197.345 80.3773C197.345 84.2651 198.089 87.4741 199.576 90.0042C201.062 92.5344 202.952 94.3857 205.244 95.5582C207.598 96.7307 210.076 97.317 212.678 97.317Z" fill="#1F2937"/>
<path d="M252.487 104.537C251.31 104.537 250.319 104.136 249.513 103.334C248.708 102.532 248.305 101.544 248.305 100.372V60.6606C248.305 59.4881 248.708 58.5007 249.513 57.6985C250.319 56.8345 251.31 56.4025 252.487 56.4025C253.664 56.4025 254.655 56.8345 255.46 57.6985C256.328 58.5007 256.761 59.4881 256.761 60.6606V64.4558C258.496 61.9874 260.571 59.9509 262.987 58.3464C265.465 56.7419 268.656 55.9397 272.559 55.9397C276.028 55.9397 279.001 56.8654 281.479 58.7167C283.957 60.568 285.723 62.8205 286.776 65.4741C290.617 59.1178 296.316 55.9397 303.874 55.9397C307.344 55.9397 310.224 56.8036 312.516 58.5316C314.87 60.2595 316.605 62.4811 317.72 65.1964C318.835 67.9116 319.393 70.7504 319.393 73.7125V100.372C319.393 101.544 318.959 102.532 318.092 103.334C317.286 104.136 316.295 104.537 315.118 104.537C313.941 104.537 312.95 104.136 312.145 103.334C311.339 102.532 310.937 101.544 310.937 100.372V75.3787C310.937 71.3675 310.224 68.4362 308.799 66.5849C307.374 64.6718 304.927 63.7153 301.458 63.7153C298.299 63.7153 295.666 64.5484 293.56 66.2146C291.515 67.8191 289.688 69.9481 288.077 72.6017V100.372C288.077 101.544 287.643 102.532 286.776 103.334C285.971 104.136 284.98 104.537 283.803 104.537C282.625 104.537 281.634 104.136 280.829 103.334C280.024 102.532 279.621 101.544 279.621 100.372V75.3787C279.621 71.3675 278.908 68.4362 277.484 66.5849C276.059 64.6718 273.612 63.7153 270.143 63.7153C266.983 63.7153 264.35 64.5484 262.244 66.2146C260.2 67.8191 258.372 69.9481 256.761 72.6017V100.372C256.761 101.544 256.328 102.532 255.46 103.334C254.655 104.136 253.664 104.537 252.487 104.537Z" fill="#1F2937"/>
<path d="M345.688 105C342.962 105 340.422 104.445 338.068 103.334C335.776 102.223 333.948 100.619 332.585 98.5203C331.222 96.3605 330.541 93.892 330.541 91.115C330.541 86.5484 332.337 82.9074 335.931 80.1921C339.586 77.4769 344.913 76.1192 351.914 76.1192H363.158V75.3787C363.158 71.3058 362.135 68.3745 360.091 66.5849C358.109 64.7952 354.98 63.9004 350.706 63.9004C348.351 63.9004 346.245 64.0856 344.387 64.4558C342.59 64.8261 340.577 65.3815 338.347 66.122C337.851 66.2454 337.448 66.3072 337.139 66.3072C336.209 66.3072 335.404 65.9677 334.722 65.2889C334.041 64.6101 333.7 63.777 333.7 62.7896C333.7 61.1234 334.506 59.9509 336.116 59.2721C341.382 57.0505 346.741 55.9397 352.192 55.9397C356.467 55.9397 360.06 56.8036 362.972 58.5316C365.945 60.2595 368.114 62.5119 369.476 65.2889C370.901 68.0042 371.614 70.9663 371.614 74.1753V100.372C371.614 101.544 371.18 102.532 370.313 103.334C369.507 104.136 368.516 104.537 367.339 104.537C366.162 104.537 365.171 104.136 364.366 103.334C363.56 102.532 363.158 101.544 363.158 100.372V97.9649C358.573 102.655 352.75 105 345.688 105ZM348.847 97.5947C351.573 97.5947 354.206 96.9467 356.746 95.6508C359.286 94.2931 361.423 92.6269 363.158 90.6522V82.8766H353.029C343.674 82.8766 338.997 85.3142 338.997 90.1893C338.997 92.4109 339.74 94.2006 341.227 95.5582C342.776 96.9158 345.316 97.5947 348.847 97.5947Z" fill="#1F2937"/>
<path d="M401.053 105C392.008 105 387.486 100.927 387.486 92.7812V64.0856H380.888C380.392 64.0856 379.959 63.9313 379.587 63.6227C379.277 63.2525 379.122 62.8205 379.122 62.3268C379.122 61.7097 379.401 61.1851 379.959 60.7532L392.597 48.4418C393.154 47.8864 393.681 47.6087 394.176 47.6087C394.672 47.6087 395.075 47.7938 395.384 48.1641C395.756 48.5344 395.942 48.9663 395.942 49.46V56.8654H406.442C407.495 56.8654 408.363 57.2048 409.044 57.8836C409.726 58.5624 410.066 59.4264 410.066 60.4755C410.066 61.4628 409.726 62.3268 409.044 63.0673C408.363 63.7461 407.495 64.0856 406.442 64.0856H395.942V92.0407C395.942 94.4474 396.499 95.9902 397.614 96.669C398.792 97.2861 400.247 97.5947 401.982 97.5947C403.221 97.5947 404.46 97.4095 405.699 97.0393C405.947 96.9776 406.195 96.9158 406.442 96.8541C406.752 96.7924 407.124 96.7616 407.557 96.7616C408.425 96.7616 409.199 97.101 409.881 97.7798C410.562 98.3969 410.903 99.1683 410.903 100.094C410.903 101.513 410.19 102.593 408.765 103.334C406.349 104.445 403.779 105 401.053 105Z" fill="#1F2937"/>
<path d="M440.453 105C435.683 105 431.501 103.982 427.908 101.945C424.315 99.9088 421.527 97.0393 419.545 93.3366C417.624 89.5722 416.664 85.2833 416.664 80.4698C416.664 75.6564 417.624 71.3983 419.545 67.6957C421.527 63.9313 424.315 61.0309 427.908 58.9944C431.501 56.9579 435.683 55.9397 440.453 55.9397C445.161 55.9397 449.312 56.9579 452.905 58.9944C456.498 61.0309 459.286 63.9313 461.268 67.6957C463.25 71.3983 464.242 75.6564 464.242 80.4698C464.242 85.2833 463.25 89.5722 461.268 93.3366C459.286 97.0393 456.498 99.9088 452.905 101.945C449.312 103.982 445.161 105 440.453 105ZM440.453 97.317C442.993 97.317 445.409 96.7307 447.701 95.5582C450.055 94.3857 451.976 92.5344 453.462 90.0042C455.011 87.4741 455.785 84.2651 455.785 80.3773C455.785 76.5512 455.011 73.3731 453.462 70.8429C451.976 68.3128 450.055 66.4923 447.701 65.3815C445.409 64.209 442.993 63.6227 440.453 63.6227C437.851 63.6227 435.373 64.209 433.019 65.3815C430.727 66.4923 428.837 68.3128 427.35 70.8429C425.864 73.3731 425.12 76.5512 425.12 80.3773C425.12 84.2651 425.864 87.4741 427.35 90.0042C428.837 92.5344 430.727 94.3857 433.019 95.5582C435.373 96.7307 437.851 97.317 440.453 97.317Z" fill="#1F2937"/>
<path d="M480.664 104.537C479.487 104.537 478.496 104.136 477.69 103.334C476.885 102.532 476.482 101.544 476.482 100.372V45.1094C476.482 43.4432 477.071 42.0238 478.248 40.8513C479.425 39.6171 480.85 39 482.522 39H485.589C486.828 39 487.943 39.3703 488.934 40.1108C489.987 40.8513 490.762 41.777 491.257 42.8878L512.351 95.2805L533.445 42.8878C533.941 41.777 534.684 40.8513 535.676 40.1108C536.729 39.3703 537.875 39 539.114 39H542.18C543.853 39 545.278 39.6171 546.455 40.8513C547.632 42.0238 548.22 43.4432 548.22 45.1094V100.372C548.22 101.544 547.818 102.532 547.012 103.334C546.207 104.136 545.216 104.537 544.039 104.537C542.862 104.537 541.84 104.136 540.972 103.334C540.167 102.532 539.764 101.544 539.764 100.372V47.7938L518.299 100.649C517.803 101.822 516.998 102.778 515.882 103.519C514.829 104.198 513.652 104.537 512.351 104.537C511.05 104.537 509.842 104.198 508.727 103.519C507.674 102.778 506.9 101.822 506.404 100.649L484.938 47.7938V100.372C484.938 101.544 484.505 102.532 483.638 103.334C482.832 104.136 481.841 104.537 480.664 104.537Z" fill="#1F2937"/>
<path d="M584.475 105C576.917 105 571.001 102.871 566.726 98.6129C562.514 94.2931 560.407 88.2454 560.407 80.4698C560.407 76.0884 561.213 72.0463 562.823 68.3436C564.434 64.641 566.912 61.648 570.257 59.3647C573.603 57.0813 577.722 55.9397 582.616 55.9397C587.201 55.9397 591.165 57.0196 594.511 59.1795C597.856 61.2777 600.396 64.1164 602.131 67.6957C603.865 71.2132 604.732 75.0701 604.732 79.2665C604.732 80.439 604.33 81.4264 603.524 82.2286C602.781 83.0309 601.759 83.432 600.458 83.432H568.956C569.452 87.7518 571.063 91.115 573.788 93.5217C576.514 95.9285 580.324 97.1318 585.218 97.1318C587.82 97.1318 590.081 96.885 592.002 96.3913C593.984 95.8976 595.905 95.1879 597.763 94.2623C598.259 94.0154 598.816 93.892 599.436 93.892C600.427 93.892 601.294 94.2314 602.038 94.9102C602.781 95.5891 603.153 96.453 603.153 97.5021C603.153 98.8598 602.347 100.001 600.737 100.927C598.321 102.285 595.936 103.303 593.582 103.982C591.227 104.661 588.192 105 584.475 105ZM596.369 76.582C596.183 73.5582 595.378 71.028 593.953 68.9916C592.59 66.9551 590.887 65.4741 588.842 64.5484C586.798 63.561 584.723 63.0673 582.616 63.0673C580.51 63.0673 578.435 63.561 576.39 64.5484C574.346 65.4741 572.642 66.9551 571.28 68.9916C569.917 71.028 569.142 73.5582 568.956 76.582H596.369Z" fill="#1F2937"/>
<path d="M632.276 105C623.231 105 618.709 100.927 618.709 92.7812V64.0856H612.111C611.616 64.0856 611.182 63.9313 610.81 63.6227C610.501 63.2525 610.346 62.8205 610.346 62.3268C610.346 61.7097 610.624 61.1851 611.182 60.7532L623.82 48.4418C624.377 47.8864 624.904 47.6087 625.4 47.6087C625.895 47.6087 626.298 47.7938 626.608 48.1641C626.979 48.5344 627.165 48.9663 627.165 49.46V56.8654H637.666C638.719 56.8654 639.586 57.2048 640.268 57.8836C640.949 58.5624 641.29 59.4264 641.29 60.4755C641.29 61.4628 640.949 62.3268 640.268 63.0673C639.586 63.7461 638.719 64.0856 637.666 64.0856H627.165V92.0407C627.165 94.4474 627.723 95.9902 628.838 96.669C630.015 97.2861 631.471 97.5947 633.205 97.5947C634.444 97.5947 635.683 97.4095 636.922 97.0393C637.17 96.9776 637.418 96.9158 637.666 96.8541C637.975 96.7924 638.347 96.7616 638.781 96.7616C639.648 96.7616 640.422 97.101 641.104 97.7798C641.785 98.3969 642.126 99.1683 642.126 100.094C642.126 101.513 641.414 102.593 639.989 103.334C637.573 104.445 635.002 105 632.276 105Z" fill="#1F2937"/>
<path d="M671.955 105C664.397 105 658.481 102.871 654.206 98.6129C649.994 94.2931 647.887 88.2454 647.887 80.4698C647.887 76.0884 648.693 72.0463 650.303 68.3436C651.914 64.641 654.392 61.648 657.737 59.3647C661.083 57.0813 665.202 55.9397 670.096 55.9397C674.681 55.9397 678.646 57.0196 681.991 59.1795C685.336 61.2777 687.876 64.1164 689.611 67.6957C691.345 71.2132 692.213 75.0701 692.213 79.2665C692.213 80.439 691.81 81.4264 691.005 82.2286C690.261 83.0309 689.239 83.432 687.938 83.432H656.436C656.932 87.7518 658.543 91.115 661.269 93.5217C663.994 95.9285 667.804 97.1318 672.698 97.1318C675.3 97.1318 677.561 96.885 679.482 96.3913C681.464 95.8976 683.385 95.1879 685.243 94.2623C685.739 94.0154 686.296 93.892 686.916 93.892C687.907 93.892 688.774 94.2314 689.518 94.9102C690.261 95.5891 690.633 96.453 690.633 97.5021C690.633 98.8598 689.828 100.001 688.217 100.927C685.801 102.285 683.416 103.303 681.062 103.982C678.707 104.661 675.672 105 671.955 105ZM683.849 76.582C683.663 73.5582 682.858 71.028 681.433 68.9916C680.07 66.9551 678.367 65.4741 676.322 64.5484C674.278 63.561 672.203 63.0673 670.096 63.0673C667.99 63.0673 665.915 63.561 663.87 64.5484C661.826 65.4741 660.122 66.9551 658.76 68.9916C657.397 71.028 656.622 73.5582 656.436 76.582H683.849Z" fill="#1F2937"/>
<path d="M707.583 104.537C706.406 104.537 705.415 104.136 704.609 103.334C703.804 102.532 703.401 101.544 703.401 100.372V60.6606C703.401 59.4881 703.804 58.5007 704.609 57.6985C705.415 56.8345 706.406 56.4025 707.583 56.4025C708.76 56.4025 709.751 56.8345 710.557 57.6985C711.424 58.5007 711.857 59.4881 711.857 60.6606V64.641C716.194 58.8401 721.057 55.9397 726.447 55.9397H726.911C728.088 55.9397 729.049 56.3408 729.792 57.1431C730.597 57.9453 731 58.9327 731 60.1052C731 61.2777 730.597 62.2342 729.792 62.9748C728.987 63.7153 727.964 64.0856 726.725 64.0856H726.261C723.287 64.0856 720.561 64.8261 718.083 66.3072C715.605 67.7265 713.53 69.7013 711.857 72.2314V100.372C711.857 101.544 711.424 102.532 710.557 103.334C709.751 104.136 708.76 104.537 707.583 104.537Z" fill="#1F2937"/>
<path fill-rule="evenodd" clip-rule="evenodd" d="M482.001 42.3076C481.348 42.3076 480.867 42.5023 480.359 43.0411L480.327 43.0751L480.294 43.1082C479.802 43.6041 479.592 44.1074 479.592 44.8273V100.669C479.592 100.838 479.619 100.911 479.627 100.931C479.634 100.949 479.655 100.996 479.737 101.079C479.819 101.162 479.866 101.182 479.884 101.189C479.904 101.198 479.976 101.225 480.143 101.225C480.311 101.225 480.383 101.198 480.403 101.189C480.421 101.182 480.468 101.162 480.55 101.079L480.598 101.031L480.647 100.985C480.702 100.934 480.731 100.897 480.746 100.876C480.76 100.857 480.765 100.846 480.767 100.842C480.768 100.84 480.769 100.837 480.77 100.833C480.772 100.827 480.775 100.819 480.777 100.806C480.781 100.784 480.788 100.74 480.788 100.669V47.5399L487.78 46.1696L509.217 99.532C509.219 99.5388 509.222 99.5456 509.225 99.5524C509.391 99.9427 509.613 100.271 509.912 100.556L487.394 44.0169C487.179 43.5515 486.848 43.1385 486.318 42.7613L486.275 42.7309L486.233 42.6993C485.87 42.4254 485.52 42.3076 485.066 42.3076H482.001ZM513.752 100.482C514.056 100.202 514.263 99.8954 514.41 99.5517C514.412 99.5451 514.415 99.5386 514.418 99.532L535.855 46.1696L542.847 47.5399V100.669C542.847 100.838 542.873 100.911 542.882 100.931C542.887 100.945 542.902 100.979 542.95 101.035C543.123 101.181 543.26 101.225 543.491 101.225C543.658 101.225 543.731 101.198 543.751 101.189C543.769 101.182 543.815 101.162 543.898 101.079C543.98 100.996 544 100.949 544.007 100.931C544.016 100.911 544.042 100.838 544.042 100.669V44.8273C544.042 44.1074 543.833 43.6041 543.34 43.1082L543.307 43.0751L543.275 43.0411C542.767 42.5023 542.286 42.3076 541.633 42.3076H538.568C538.124 42.3076 537.716 42.4222 537.266 42.7321C536.801 43.0929 536.473 43.51 536.241 44.0151L513.752 100.482ZM475.13 37.9745C476.97 36.0405 479.326 35 482.001 35H485.066C487.072 35 488.935 35.6195 490.544 36.8211C492.08 37.9232 493.278 39.355 494.048 41.0984L494.075 41.1599L511.817 85.7089L529.559 41.1599L529.586 41.0984C530.337 39.3972 531.476 37.9695 532.954 36.8532L532.996 36.8216L533.039 36.7912C534.677 35.6265 536.549 35 538.568 35H541.633C544.308 35 546.665 36.0405 548.505 37.9745C550.344 39.8429 551.299 42.1956 551.299 44.8273V100.669C551.299 102.787 550.539 104.725 549.029 106.246C547.518 107.767 545.594 108.532 543.491 108.532C541.393 108.532 539.491 107.774 537.957 106.34L537.908 106.294L537.86 106.246C536.35 104.725 535.59 102.787 535.59 100.669V66.3144L521.116 102.344L521.106 102.368C520.32 104.247 519.035 105.765 517.359 106.89L517.339 106.904L517.318 106.917C515.655 108 513.79 108.532 511.817 108.532C509.846 108.532 507.984 108.002 506.303 106.967L506.2 106.904L506.102 106.835C504.501 105.696 503.29 104.189 502.529 102.368L502.519 102.344L488.044 66.3144V100.669C488.044 102.854 487.204 104.802 485.633 106.294C484.13 107.783 482.224 108.532 480.143 108.532C478.041 108.532 476.116 107.767 474.606 106.246C473.095 104.725 472.335 102.787 472.335 100.669V44.8273C472.335 42.1957 473.291 39.8429 475.13 37.9745ZM138.445 42.78C138.436 42.7877 138.424 42.7992 138.409 42.8158L138.36 42.8695L138.309 42.9211C138.287 42.9426 138.278 42.9555 138.275 42.9594C138.271 42.9731 138.257 43.0277 138.257 43.1436C138.257 43.2595 138.271 43.3141 138.275 43.3278C138.278 43.3317 138.287 43.3447 138.309 43.3661M138.309 43.3661C138.33 43.3876 138.343 43.3971 138.347 43.3999C138.36 43.4043 138.414 43.4184 138.529 43.4184H161.106V100.669C161.106 100.838 161.133 100.911 161.141 100.931C161.149 100.949 161.169 100.996 161.251 101.079C161.333 101.162 161.38 101.182 161.398 101.189C161.418 101.198 161.491 101.225 161.658 101.225C161.825 101.225 161.898 101.198 161.918 101.189C161.935 101.182 161.982 101.162 162.065 101.079L162.112 101.031L162.161 100.985C162.216 100.934 162.246 100.897 162.26 100.876C162.275 100.857 162.28 100.846 162.281 100.842C162.283 100.838 162.287 100.828 162.291 100.806C162.296 100.784 162.302 100.74 162.302 100.669V43.4184H184.786C184.901 43.4184 184.955 43.4043 184.969 43.3999C184.973 43.3972 184.986 43.3876 185.007 43.3661L185.058 43.3145L185.112 43.2649C185.128 43.2496 185.14 43.2376 185.147 43.2291C185.149 43.2128 185.152 43.185 185.152 43.1436C185.152 43.1023 185.149 43.0744 185.147 43.0581C185.14 43.0496 185.128 43.0376 185.112 43.0223L185.005 42.9232L184.907 42.8158C184.891 42.7992 184.879 42.7877 184.871 42.78C184.855 42.7779 184.827 42.7753 184.786 42.7753H138.529C138.488 42.7753 138.461 42.7779 138.445 42.78M138.344 43.3991C138.344 43.399 138.345 43.3992 138.344 43.3991ZM138.276 43.33C138.277 43.3325 138.277 43.332 138.276 43.33ZM133.126 37.8059C134.563 36.2661 136.446 35.4677 138.529 35.4677H184.786C186.845 35.4677 188.709 36.2477 190.139 37.7527C191.634 39.1936 192.409 41.0699 192.409 43.1436C192.409 45.2416 191.616 47.1375 190.087 48.5849C188.627 50.0283 186.775 50.726 184.786 50.726H169.559V100.669C169.559 102.854 168.718 104.802 167.148 106.294C165.645 107.783 163.739 108.532 161.658 108.532C159.555 108.532 157.63 107.767 156.12 106.246C154.609 104.725 153.85 102.787 153.85 100.669V50.726H138.529C136.517 50.726 134.645 50.0117 133.177 48.5334C131.709 47.0551 131 45.1699 131 43.1436C131 41.1411 131.693 39.2763 133.126 37.8059ZM391.829 53.5854V92.2509C391.829 94.899 392.38 98.2868 395.238 100.046L395.337 100.107L395.44 100.161C397.272 101.132 399.346 101.517 401.495 101.517C402.258 101.517 403.016 101.462 403.77 101.354C402.739 101.579 401.673 101.692 400.566 101.692C396.52 101.692 394.163 100.763 392.829 99.5491C391.565 98.3981 390.634 96.4513 390.634 92.9992V60.3487H384.962L391.829 53.5854ZM389.565 45.5945C390.416 44.7417 391.811 43.699 393.693 43.699C395.18 43.699 396.567 44.2992 397.577 45.445C398.517 46.4443 399.086 47.7493 399.086 49.2236V53.0528H405.954C407.87 53.0528 409.692 53.7137 411.12 55.1519C412.548 56.59 413.205 58.4244 413.205 60.3546C413.205 62.2839 412.512 64.0334 411.229 65.4426L411.176 65.5011L411.12 65.5572C409.692 66.9954 407.87 67.6563 405.954 67.6563H399.086V92.2509C399.086 93.0851 399.172 93.6005 399.251 93.8839C399.769 94.0714 400.493 94.2094 401.495 94.2094C402.365 94.2094 403.253 94.0787 404.168 93.8022L404.249 93.7778L405.158 93.5491L405.242 93.532C405.854 93.4087 406.478 93.3675 407.068 93.3675C408.978 93.3675 410.625 94.1537 411.896 95.4066C413.299 96.7229 414.041 98.4638 414.041 100.389C414.041 101.746 413.693 103.09 412.91 104.289C412.143 105.466 411.085 106.308 409.954 106.902L409.876 106.943L409.796 106.98C406.893 108.33 403.803 109 400.566 109C395.572 109 391.149 107.871 387.962 104.97C384.706 102.005 383.377 97.7784 383.377 92.9992V67.6563H380.41C379.089 67.6563 377.828 67.2151 376.787 66.3418L376.534 66.1291L376.323 65.874C375.455 64.8259 375.017 63.5562 375.017 62.2253C375.017 60.4022 375.862 58.9244 377.062 57.9078L389.548 45.611C389.554 45.6055 389.559 45.6 389.565 45.5945ZM622.953 53.5854V92.2509C622.953 94.899 623.504 98.2868 626.361 100.046L626.461 100.107L626.564 100.161C628.395 101.132 630.47 101.517 632.619 101.517C633.382 101.517 634.14 101.462 634.894 101.354C633.863 101.579 632.797 101.692 631.69 101.692C627.644 101.692 625.286 100.763 623.953 99.5491C622.688 98.3981 621.757 96.4513 621.757 92.9992V60.3487H616.086L622.953 53.5854ZM620.69 45.5931C621.541 44.7405 622.936 43.699 624.817 43.699C626.304 43.699 627.691 44.2993 628.701 45.4453C629.641 46.4447 630.21 47.7497 630.21 49.2236V53.0528H637.078C638.994 53.0528 640.816 53.7138 642.244 55.1519C643.672 56.59 644.328 58.4244 644.328 60.3546C644.328 62.284 643.636 64.0334 642.353 65.4426L642.3 65.5011L642.244 65.5572C640.816 66.9954 638.994 67.6563 637.078 67.6563H630.21V92.2509C630.21 93.0851 630.296 93.6005 630.375 93.8839C630.893 94.0714 631.617 94.2094 632.619 94.2094C633.489 94.2094 634.377 94.0787 635.292 93.8022L635.373 93.7778L636.281 93.5491L636.366 93.532C636.978 93.4087 637.601 93.3675 638.192 93.3675C640.102 93.3675 641.749 94.1539 643.02 95.407C644.423 96.7232 645.164 98.464 645.164 100.389C645.164 101.746 644.817 103.09 644.034 104.289C643.266 105.466 642.209 106.308 641.078 106.902L641 106.943L640.92 106.98C638.017 108.33 634.927 109 631.69 109C626.696 109 622.273 107.871 619.086 104.97C615.83 102.005 614.501 97.7784 614.501 92.9992V67.6563H611.534C610.213 67.6563 608.952 67.2151 607.911 66.3418L607.658 66.1291L607.446 65.874C606.579 64.826 606.141 63.5563 606.141 62.2253C606.141 60.4024 606.986 58.9245 608.185 57.9079L620.672 45.611C620.678 45.6051 620.684 45.5991 620.69 45.5931ZM212.273 59.425C208.036 59.425 204.493 60.3346 201.528 62.0337C198.563 63.7322 196.262 66.1371 194.592 69.3375C192.98 72.4834 192.123 76.1921 192.123 80.5587C192.123 84.9138 192.976 88.6567 194.592 91.8728C196.256 95.0012 198.554 97.3801 201.528 99.0837C204.493 100.783 208.036 101.692 212.273 101.692C216.439 101.692 219.953 100.787 222.925 99.0837C225.905 97.3764 228.207 94.9909 229.871 91.8525C231.542 88.6405 232.423 84.9057 232.423 80.5587C232.423 76.2056 231.54 72.509 229.878 69.3699L229.872 69.3589L229.866 69.3479C228.196 66.1423 225.893 63.7341 222.925 62.0337C219.953 60.3306 216.439 59.425 212.273 59.425ZM197.939 55.6822C202.157 53.2656 206.974 52.1174 212.273 52.1174C217.519 52.1174 222.303 53.2696 226.514 55.6822C230.726 58.0956 233.994 61.5454 236.287 65.9426C238.583 70.2837 239.68 75.1887 239.68 80.5587C239.68 85.9349 238.581 90.8645 236.292 95.2578L236.286 95.2689L236.28 95.2799C233.983 99.6188 230.713 103.029 226.514 105.435C222.303 107.848 217.519 109 212.273 109C206.974 109 202.157 107.852 197.939 105.435C193.739 103.029 190.47 99.6188 188.172 95.2799L188.155 95.248L188.139 95.2158C185.927 90.8314 184.866 85.9169 184.866 80.5587C184.866 75.2019 185.926 70.3084 188.15 65.9733L188.155 65.9632L188.161 65.9531C190.454 61.551 193.724 58.0975 197.939 55.6822ZM266.785 60.1911C268.225 59.7043 269.984 59.425 272.128 59.425C274.909 59.425 277.094 60.1605 278.868 61.5004C280.854 63.0003 282.179 64.7464 282.965 66.749L284.528 70.7293L284.011 71.5892V100.669C284.011 100.74 284.005 100.784 284 100.806C283.996 100.828 283.992 100.838 283.99 100.842C283.989 100.846 283.984 100.857 283.969 100.876C283.955 100.897 283.925 100.934 283.87 100.985L283.821 101.031L283.773 101.079C283.691 101.162 283.644 101.182 283.627 101.189C283.607 101.198 283.534 101.225 283.367 101.225C283.2 101.225 283.127 101.198 283.107 101.189C283.089 101.182 283.042 101.162 282.96 101.079C282.878 100.996 282.858 100.949 282.85 100.931C282.842 100.911 282.815 100.838 282.815 100.669V75.4141C282.815 71.0892 282.085 67.1515 279.947 64.3277C277.567 61.1167 273.774 59.9746 269.713 59.9746C268.711 59.9746 267.733 60.0455 266.785 60.1911ZM297.908 60.2196C299.574 59.6879 301.41 59.425 303.43 59.425C306.275 59.425 308.34 60.1311 309.879 61.3038L309.897 61.3179L309.916 61.3318C311.729 62.6768 313.047 64.381 313.912 66.5084C314.846 68.8087 315.313 71.207 315.313 73.7304V100.669C315.313 100.74 315.307 100.784 315.303 100.806C315.298 100.828 315.294 100.838 315.292 100.842C315.291 100.846 315.286 100.857 315.272 100.876C315.257 100.897 315.227 100.934 315.172 100.985L315.123 101.031L315.076 101.079C314.994 101.162 314.947 101.182 314.929 101.189C314.909 101.198 314.836 101.225 314.669 101.225C314.502 101.225 314.429 101.198 314.409 101.189C314.391 101.182 314.344 101.162 314.262 101.079C314.18 100.996 314.16 100.949 314.153 100.931C314.144 100.911 314.117 100.838 314.117 100.669V75.4141C314.117 71.0892 313.387 67.1515 311.25 64.3277C308.87 61.1167 305.077 59.9746 301.015 59.9746C299.949 59.9746 298.912 60.0547 297.908 60.2196ZM252.709 60.5416C252.709 60.4706 252.703 60.4269 252.698 60.4047C252.694 60.3832 252.69 60.3733 252.688 60.3692C252.686 60.3651 252.681 60.3542 252.667 60.3345C252.652 60.3141 252.623 60.2771 252.568 60.2259L252.47 60.1338L252.378 60.0347C252.327 59.9796 252.291 59.9497 252.27 59.9349C252.251 59.9206 252.24 59.9155 252.236 59.9137C252.232 59.912 252.222 59.9079 252.201 59.9036C252.179 59.8992 252.135 59.8927 252.065 59.8927C251.994 59.8927 251.951 59.8992 251.929 59.9036C251.907 59.9079 251.897 59.912 251.893 59.9138C251.889 59.9155 251.878 59.9206 251.859 59.9349C251.839 59.9497 251.802 59.9796 251.751 60.0347L251.705 60.0842L251.658 60.1321C251.576 60.2148 251.555 60.2621 251.548 60.2799C251.54 60.3002 251.513 60.3733 251.513 60.5416V100.669C251.513 100.838 251.54 100.911 251.548 100.931C251.555 100.949 251.576 100.996 251.658 101.079C251.74 101.162 251.787 101.182 251.805 101.189C251.825 101.198 251.897 101.225 252.065 101.225C252.232 101.225 252.304 101.198 252.324 101.189C252.342 101.182 252.389 101.162 252.471 101.079L252.519 101.031L252.568 100.985C252.623 100.934 252.652 100.897 252.667 100.876C252.681 100.857 252.686 100.846 252.688 100.842C252.69 100.838 252.694 100.828 252.698 100.806C252.703 100.784 252.709 100.74 252.709 100.669V60.5416ZM258.807 56.4378C259.368 55.9903 259.949 55.5653 260.548 55.163L260.565 55.1512L260.583 55.1397C263.81 53.0276 267.745 52.1174 272.128 52.1174C276.282 52.1174 280.042 53.2527 283.222 55.6543C284.526 56.6395 285.683 57.7337 286.682 58.9361C290.981 54.4187 296.635 52.1174 303.43 52.1174C307.512 52.1174 311.199 53.1531 314.239 55.4625C317.123 57.6077 319.266 60.3886 320.628 63.7415C321.923 66.9288 322.57 70.2675 322.57 73.7304V100.669C322.57 102.854 321.729 104.802 320.159 106.294C318.656 107.783 316.75 108.532 314.669 108.532C312.566 108.532 310.642 107.767 309.131 106.246C307.621 104.725 306.861 102.787 306.861 100.669V75.4141C306.861 71.6441 306.171 69.6672 305.473 68.7511L305.456 68.7283L305.439 68.7052C304.969 68.0677 303.879 67.2822 301.015 67.2822C298.527 67.2822 296.732 67.931 295.376 69.0152L295.365 69.0239C293.923 70.1684 292.549 71.694 291.268 73.6612V100.669C291.268 102.854 290.427 104.802 288.857 106.294C287.354 107.783 285.448 108.532 283.367 108.532C281.264 108.532 279.339 107.767 277.829 106.246C276.318 104.725 275.559 102.787 275.559 100.669V75.4141C275.559 71.6441 274.869 69.6672 274.171 68.7511L274.154 68.7283L274.137 68.7052C273.667 68.0677 272.577 67.2822 269.713 67.2822C267.225 67.2822 265.43 67.931 264.074 69.0152L264.063 69.0239C262.62 70.1684 261.246 71.694 259.966 73.6612V100.669C259.966 102.854 259.125 104.802 257.555 106.294C256.051 107.783 254.145 108.532 252.065 108.532C249.962 108.532 248.037 107.767 246.527 106.246C245.016 104.725 244.256 102.787 244.256 100.669V60.5416C244.256 58.4463 245 56.5267 246.479 55.013C247.961 53.4318 249.895 52.5851 252.065 52.5851C254.211 52.5851 256.128 53.4142 257.604 54.9639C258.072 55.416 258.474 55.9093 258.807 56.4378ZM337.286 62.413C342.054 60.41 346.86 59.425 351.727 59.425C355.515 59.425 358.425 60.1976 360.645 61.5293L360.659 61.5379L360.674 61.5464C363.098 62.9702 364.73 64.7352 365.744 66.8233L365.766 66.8675L365.788 66.9112C366.928 69.1075 367.512 71.5162 367.512 74.1981V100.669C367.512 100.74 367.505 100.784 367.501 100.806C367.498 100.82 367.496 100.829 367.494 100.835C367.492 100.838 367.492 100.84 367.491 100.842C367.489 100.846 367.484 100.857 367.47 100.876C367.455 100.897 367.426 100.934 367.371 100.985L367.322 101.031L367.274 101.079C367.192 101.162 367.145 101.182 367.127 101.189C367.107 101.198 367.035 101.225 366.867 101.225C366.7 101.225 366.628 101.198 366.608 101.189C366.59 101.182 366.543 101.162 366.461 101.079C366.379 100.996 366.358 100.949 366.351 100.931C366.343 100.911 366.316 100.838 366.316 100.669V75.4141C366.316 70.7902 365.175 66.5919 362.039 63.8024C359.09 61.1244 354.893 60.1616 350.241 60.1616C347.704 60.1616 345.353 60.3628 343.213 60.7938L343.201 60.7962L343.19 60.7986C341.377 61.1764 339.406 61.7186 337.286 62.413ZM339.835 81.8943C339.016 82.2836 338.292 82.7203 337.654 83.1976C334.992 85.236 333.713 87.8268 333.713 91.3155C333.713 93.4876 334.229 95.2898 335.188 96.8341C336.18 98.3701 337.488 99.5367 339.179 100.368C341.019 101.243 343.019 101.692 345.225 101.692C346.273 101.692 347.284 101.634 348.258 101.517C344.468 101.501 340.885 100.777 338.37 98.5483L338.342 98.5238L338.315 98.4988C335.995 96.3574 334.909 93.5288 334.909 90.3802C334.909 88.5422 335.354 86.7652 336.354 85.1839C337.235 83.791 338.444 82.713 339.835 81.8943ZM360.252 104.899C355.899 107.642 350.856 109 345.225 109C341.989 109 338.917 108.329 336.055 106.965L336.038 106.956L336.021 106.948C333.145 105.539 330.81 103.472 329.082 100.783L329.069 100.763L329.057 100.743C327.299 97.9267 326.457 94.7464 326.457 91.3155C326.457 85.5801 328.766 80.815 333.279 77.3671L333.291 77.3581L333.303 77.3491C337.839 73.9429 344.063 72.5086 351.449 72.5086H358.812C358.482 70.8103 357.863 69.8355 357.227 69.2727L357.206 69.2542L357.186 69.2355C356.172 68.3105 354.124 67.4693 350.241 67.4693C348.077 67.4693 346.22 67.6415 344.648 67.9573C343.027 68.2957 341.159 68.8136 339.035 69.5267L338.902 69.571L338.767 69.6051C338.144 69.762 337.415 69.9012 336.68 69.9012C334.75 69.9012 333.033 69.1449 331.699 67.8022C330.316 66.4095 329.615 64.6289 329.615 62.693C329.615 61.2452 329.969 59.7779 330.852 58.4784C331.727 57.1905 332.944 56.3277 334.243 55.7741C339.932 53.3478 345.768 52.1174 351.727 52.1174C356.478 52.1174 360.746 53.0882 364.344 55.2425C367.843 57.3011 370.532 60.0707 372.242 63.569C373.935 66.8483 374.768 70.4114 374.768 74.1981V100.669C374.768 102.854 373.928 104.802 372.357 106.294C370.854 107.783 368.948 108.532 366.867 108.532C364.765 108.532 362.84 107.767 361.329 106.246C360.913 105.827 360.554 105.376 360.252 104.899ZM439.95 59.425C435.713 59.425 432.17 60.3346 429.204 62.0337C426.24 63.7321 423.939 66.1368 422.269 69.3369C420.657 72.4829 419.799 76.1918 419.799 80.5587C419.799 84.9137 420.653 88.6566 422.269 91.8727C423.933 95.0012 426.231 97.3801 429.204 99.0837C432.17 100.783 435.713 101.692 439.95 101.692C444.115 101.692 447.63 100.787 450.602 99.0837C453.582 97.3762 455.884 94.9904 457.549 91.8514C459.219 88.6396 460.1 84.9052 460.1 80.5587C460.1 76.2056 459.217 72.509 457.554 69.3699L457.549 69.3589L457.543 69.3479C455.873 66.1423 453.57 63.7341 450.602 62.0337C447.63 60.3306 444.115 59.425 439.95 59.425ZM425.616 55.6822C429.834 53.2656 434.65 52.1174 439.95 52.1174C445.196 52.1174 449.98 53.2696 454.191 55.6822C458.402 58.0953 461.67 61.5447 463.963 65.9411C466.26 70.2826 467.357 75.1881 467.357 80.5587C467.357 85.9349 466.258 90.8645 463.969 95.2578L463.963 95.2689L463.957 95.2799C461.659 99.6188 458.39 103.029 454.191 105.435C449.98 107.848 445.196 109 439.95 109C434.65 109 429.834 107.852 425.616 105.435C421.416 103.029 418.147 99.6188 415.849 95.2799L415.832 95.248L415.816 95.2158C413.603 90.8314 412.543 85.9169 412.543 80.5587C412.543 75.2019 413.603 70.3084 415.827 65.9733L415.832 65.9632L415.838 65.9531C418.131 61.551 421.4 58.0975 425.616 55.6822ZM578.785 59.6385C575.989 60.0238 573.67 60.9205 571.749 62.2463C568.968 64.1651 566.935 66.6485 565.597 69.758C564.2 73.0029 563.481 76.5877 563.481 80.5587C563.481 87.7406 565.387 92.8272 568.754 96.328C572.184 99.7711 577.076 101.692 583.91 101.692C587.44 101.692 590.101 101.362 592.003 100.808C594.049 100.211 596.169 99.3036 598.365 98.0576C598.545 97.9525 598.678 97.8601 598.774 97.7843C596.7 98.8251 594.549 99.6281 592.325 100.189C590.038 100.782 587.464 101.049 584.653 101.049C579.182 101.049 574.409 99.6841 570.821 96.4818C567.299 93.3378 565.369 89.0403 564.793 83.9668L564.331 79.8981H564.564L564.776 76.4068C564.992 72.859 565.908 69.642 567.701 66.9333C569.394 64.3767 571.587 62.4081 574.285 61.1632C575.748 60.453 577.25 59.9402 578.785 59.6385ZM585.669 59.7111C587.082 60.0194 588.467 60.507 589.819 61.1632C592.506 62.4032 594.693 64.3612 596.383 66.9031C598.25 69.6148 599.204 72.8433 599.42 76.4068L599.633 79.8981H599.886C600.14 79.8981 600.26 79.862 600.291 79.8507L600.334 79.8039L600.385 79.7523C600.468 79.6696 600.488 79.6223 600.495 79.6044C600.503 79.5841 600.53 79.511 600.53 79.3427C600.53 75.6205 599.773 72.2795 598.301 69.2615L598.296 69.2503L598.29 69.239C596.849 66.2334 594.77 63.8884 592.008 62.137L591.988 62.1242L591.968 62.1111C590.153 60.9265 588.069 60.1118 585.669 59.7111ZM567.647 56.218C571.711 53.4143 576.582 52.1174 582.052 52.1174C587.218 52.1174 591.883 53.3537 595.895 55.966C599.806 58.4509 602.795 61.8334 604.818 66.0473C606.811 70.136 607.787 74.5872 607.787 79.3427C607.787 81.4369 607.044 83.3555 605.567 84.8688C604.014 86.5291 601.97 87.2057 599.886 87.2057H572.99C573.631 88.7798 574.528 90.0251 575.635 91.0132C577.496 92.6749 580.339 93.7417 584.653 93.7417C587.037 93.7417 588.979 93.5116 590.527 93.1093L590.54 93.1058L590.553 93.1025C592.274 92.6693 593.945 92.0459 595.57 91.2277C596.626 90.696 597.749 90.4678 598.864 90.4678C600.78 90.4678 602.517 91.1654 603.917 92.4571C605.446 93.8691 606.208 95.7366 606.208 97.7696C606.208 100.908 604.249 103.076 601.978 104.395L601.962 104.404L601.947 104.413C599.319 105.906 596.677 107.053 594.021 107.827C591.218 108.644 587.81 109 583.91 109C575.647 109 568.717 106.626 563.603 101.476L563.584 101.457L563.566 101.438C558.522 96.2092 556.224 89.0787 556.224 80.5587C556.224 75.6748 557.115 71.0907 558.938 66.8525C560.82 62.479 563.741 58.9137 567.647 56.218ZM666.228 59.6385C663.431 60.0238 661.113 60.9205 659.192 62.2463C656.411 64.1651 654.377 66.6485 653.039 69.758C651.643 73.0029 650.923 76.5877 650.923 80.5587C650.923 87.7406 652.829 92.8272 656.196 96.328C659.626 99.7711 664.518 101.692 671.352 101.692C674.883 101.692 677.543 101.362 679.446 100.808C681.491 100.211 683.612 99.3036 685.808 98.0576C685.987 97.9525 686.12 97.8601 686.217 97.7843C684.142 98.8251 681.992 99.6281 679.768 100.189C677.48 100.782 674.907 101.049 672.095 101.049C666.625 101.049 661.851 99.6841 658.264 96.4818C654.741 93.3378 652.811 89.0403 652.235 83.9668L651.774 79.8981H652.007L652.219 76.4068C652.434 72.859 653.35 69.642 655.143 66.9333C656.836 64.3767 659.03 62.4081 661.728 61.1632C663.19 60.453 664.693 59.9402 666.228 59.6385ZM673.111 59.7111C675.511 60.1118 677.595 60.9265 679.41 62.1111L679.43 62.1242L679.45 62.137C682.213 63.8884 684.292 66.2334 685.733 69.239L685.738 69.2503L685.744 69.2615C687.216 72.2795 687.973 75.6205 687.973 79.3427C687.973 79.511 687.946 79.5841 687.938 79.6044C687.93 79.6223 687.91 79.6696 687.828 79.7523L687.777 79.8039L687.734 79.8507C687.702 79.862 687.582 79.8981 687.328 79.8981H687.075L686.863 76.4068C686.646 72.8433 685.692 69.6148 683.825 66.9031C682.135 64.3612 679.949 62.4032 677.261 61.1632C675.91 60.507 674.525 60.0194 673.111 59.7111ZM655.09 56.218C659.153 53.4143 664.024 52.1174 669.494 52.1174C674.661 52.1174 679.326 53.3537 683.337 55.966C687.248 58.4509 690.237 61.8334 692.261 66.0473C694.254 70.136 695.229 74.5872 695.229 79.3427C695.229 81.4369 694.486 83.3555 693.009 84.8688C691.457 86.5291 689.413 87.2057 687.328 87.2057H660.432C661.073 88.7798 661.97 90.0251 663.077 91.0132C664.939 92.6749 667.782 93.7417 672.095 93.7417C674.479 93.7417 676.421 93.5116 677.969 93.1093L677.982 93.1058L677.996 93.1025C679.716 92.6693 681.387 92.0459 683.012 91.2277C684.068 90.696 685.191 90.4678 686.307 90.4678C688.222 90.4678 689.96 91.1654 691.359 92.4571C692.889 93.8691 693.65 95.7366 693.65 97.7696C693.65 100.908 691.691 103.076 689.42 104.395L689.405 104.404L689.39 104.413C686.762 105.906 684.119 107.053 681.464 107.827C678.66 108.644 675.252 109 671.352 109C663.09 109 656.16 106.626 651.045 101.476L651.027 101.457L651.009 101.438C645.965 96.2092 643.667 89.0787 643.667 80.5587C643.667 75.6748 644.557 71.0907 646.381 66.8525C648.263 62.479 651.183 58.9137 655.09 56.218ZM707.609 100.669C707.609 100.74 707.603 100.784 707.598 100.806C707.594 100.828 707.59 100.838 707.588 100.842C707.586 100.846 707.581 100.857 707.567 100.876C707.553 100.897 707.523 100.934 707.468 100.985L707.419 101.031L707.371 101.079C707.289 101.162 707.242 101.182 707.225 101.189C707.204 101.198 707.132 101.225 706.965 101.225C706.798 101.225 706.725 101.198 706.705 101.189C706.687 101.182 706.64 101.162 706.558 101.079C706.476 100.996 706.456 100.949 706.448 100.931C706.44 100.911 706.413 100.838 706.413 100.669V60.5416C706.413 60.3733 706.44 60.3002 706.448 60.2799C706.456 60.2621 706.476 60.2148 706.558 60.1321L706.606 60.0842L706.651 60.0347C706.702 59.9796 706.739 59.9497 706.759 59.9349C706.779 59.9206 706.789 59.9155 706.794 59.9138C706.798 59.912 706.807 59.9079 706.829 59.9036C706.851 59.8992 706.894 59.8927 706.965 59.8927C707.035 59.8927 707.079 59.8992 707.101 59.9036C707.122 59.9079 707.132 59.912 707.136 59.9138C707.14 59.9155 707.151 59.9206 707.17 59.9349C707.191 59.9497 707.227 59.9796 707.278 60.0347L707.37 60.1338L707.468 60.2259C707.523 60.2771 707.553 60.3141 707.567 60.3345C707.581 60.3542 707.586 60.3651 707.588 60.3692C707.59 60.3733 707.594 60.3832 707.598 60.4047C707.603 60.4269 707.609 60.4706 707.609 60.5416V100.669ZM719.829 61.2075C721.681 60.6343 723.621 60.3487 725.635 60.3487H726.099C726.54 60.3487 726.65 60.2448 726.699 60.1993L726.703 60.1952C726.714 60.1852 726.721 60.1774 726.726 60.1721C726.727 60.1672 726.729 60.1604 726.731 60.1516C726.736 60.1231 726.743 60.0681 726.743 59.9804C726.743 59.8121 726.717 59.739 726.708 59.7187C726.701 59.7008 726.681 59.6535 726.599 59.5708L726.547 59.5192L726.498 59.4655C726.488 59.4546 726.48 59.4471 726.475 59.4423C726.47 59.4411 726.464 59.4395 726.455 59.4379C726.427 59.4325 726.372 59.425 726.285 59.425H725.82C723.83 59.425 721.832 59.9643 719.829 61.2075ZM713.791 56.5748C717.354 53.7116 721.362 52.1174 725.82 52.1174H726.285C728.367 52.1174 730.302 52.8719 731.78 54.4549C733.257 55.9682 734 57.8865 734 59.9804C734 62.1005 733.234 64.0696 731.625 65.5649C730.061 67.0186 728.121 67.6563 726.099 67.6563H725.635C723.3 67.6563 721.224 68.2349 719.327 69.3806L719.299 69.398L719.269 69.4149C717.589 70.3877 716.122 71.6962 714.866 73.3856V100.669C714.866 102.854 714.025 104.803 712.454 106.295C710.951 107.784 709.045 108.532 706.965 108.532C704.862 108.532 702.937 107.767 701.427 106.246C699.916 104.725 699.157 102.787 699.157 100.669V60.5416C699.157 58.4462 699.9 56.5266 701.38 55.0128C702.861 53.4317 704.795 52.5851 706.965 52.5851C709.111 52.5851 711.028 53.414 712.503 54.9634C713.012 55.4545 713.443 55.9941 713.791 56.5748ZM582.052 66.6274C580.537 66.6274 579.001 66.9818 577.412 67.758L577.371 67.7778L577.33 67.7965C575.96 68.4235 574.762 69.4409 573.739 70.9868C573.357 71.5636 573.026 72.2227 572.756 72.9763H591.408C591.133 72.2491 590.796 71.6108 590.407 71.0492L590.386 71.0182L590.365 70.9868C589.342 69.4409 588.144 68.4235 586.774 67.7965L586.733 67.7778L586.692 67.758C585.103 66.9818 583.567 66.6274 582.052 66.6274ZM669.494 66.6274C667.98 66.6274 666.444 66.9818 664.854 67.758L664.813 67.7778L664.772 67.7965C663.403 68.4235 662.205 69.4409 661.181 70.9868C660.799 71.5636 660.468 72.2227 660.199 72.9763H678.85C678.576 72.2491 678.238 71.6108 677.85 71.0492L677.828 71.0182L677.807 70.9868C676.784 69.4409 675.586 68.4235 674.216 67.7965L674.175 67.7778L674.135 67.758C672.545 66.9818 671.009 66.6274 669.494 66.6274ZM203.237 62.0353C206.083 60.6056 209.108 59.881 212.273 59.881C215.378 59.881 218.343 60.6068 221.124 62.0355C224.186 63.5098 226.598 65.8827 228.392 68.9567C230.362 72.225 231.227 76.1322 231.227 80.4652C231.227 84.8475 230.367 88.79 228.392 92.0666C226.599 95.1405 224.196 97.5304 221.158 99.0644C218.367 100.505 215.39 101.236 212.273 101.236C209.102 101.236 206.07 100.509 203.219 99.0734L203.202 99.0646L203.185 99.0557C200.196 97.51 197.829 95.1079 196.045 92.0389C194.144 88.7684 193.319 84.8374 193.319 80.4652C193.319 76.1431 194.148 72.2475 196.045 68.9849C197.832 65.9103 200.214 63.5209 203.237 62.0353ZM212.273 67.1887C210.242 67.1887 208.32 67.6459 206.465 68.5801L206.447 68.589L206.429 68.5977C204.878 69.3577 203.489 70.644 202.307 72.6766C201.231 74.5275 200.575 77.0547 200.575 80.4652C200.575 83.9501 201.236 86.5044 202.307 88.3472C203.492 90.3844 204.896 91.7216 206.483 92.5463C208.332 93.4744 210.249 93.9287 212.273 93.9287C214.227 93.9287 216.074 93.4786 217.86 92.555L217.878 92.5461L217.895 92.5373C219.546 91.7059 220.971 90.3674 222.145 88.3472L222.162 88.3189L222.179 88.2909C223.288 86.4597 223.971 83.9272 223.971 80.4652C223.971 77.0781 223.293 74.5724 222.179 72.733L222.162 72.7049L222.145 72.6766C220.978 70.6688 219.575 69.3822 217.965 68.6141L217.912 68.5891L217.86 68.5624C216.074 67.6388 214.227 67.1887 212.273 67.1887ZM430.914 62.0353C433.759 60.6056 436.785 59.881 439.95 59.881C443.055 59.881 446.02 60.6069 448.801 62.0355C451.863 63.5098 454.275 65.8827 456.068 68.9567C458.039 72.225 458.904 76.1322 458.904 80.4652C458.904 84.8478 458.044 88.7905 456.068 92.0672C454.274 95.1435 451.868 97.5347 448.827 99.0684C446.038 100.506 443.064 101.236 439.95 101.236C436.779 101.236 433.747 100.509 430.896 99.0734L430.879 99.0646L430.861 99.0557C427.873 97.51 425.506 95.1079 423.722 92.0389C421.821 88.7684 420.995 84.8374 420.995 80.4652C420.995 76.1431 421.825 72.2474 423.722 68.9849C425.509 65.9103 427.891 63.5209 430.914 62.0353ZM439.95 67.1887C437.919 67.1887 435.997 67.646 434.142 68.5801L434.124 68.589L434.106 68.5977C432.555 69.3577 431.166 70.644 429.984 72.6766C428.908 74.5275 428.252 77.0548 428.252 80.4652C428.252 83.9501 428.913 86.5044 429.984 88.3472C431.168 90.3846 432.573 91.7218 434.16 92.5465C436.01 93.4745 437.926 93.9287 439.95 93.9287C441.903 93.9287 443.751 93.4786 445.537 92.555L445.555 92.5461L445.572 92.5373C447.223 91.7059 448.648 90.3674 449.822 88.3472L449.839 88.3189L449.856 88.2909C450.964 86.4597 451.647 83.9272 451.647 80.4652C451.647 77.0781 450.97 74.5724 449.856 72.733L449.839 72.7049L449.822 72.6766C448.655 70.6688 447.252 69.3822 445.641 68.6141L445.589 68.5891L445.537 68.5624C443.751 67.6387 441.903 67.1887 439.95 67.1887ZM342.474 89.1106C342.306 89.3767 342.166 89.7549 342.166 90.3802C342.166 91.7008 342.554 92.4852 343.189 93.084C343.76 93.5717 345.207 94.2094 348.383 94.2094C350.495 94.2094 352.553 93.71 354.594 92.6623C356.333 91.7194 357.813 90.6285 359.059 89.3982V86.6445H352.563C348.086 86.6445 345.285 87.2542 343.726 88.0755C343 88.4581 342.652 88.8295 342.474 89.1106Z" fill="#1F2937"/>
</g>
<defs>
<filter id="filter0_d" x="0" y="-0.000167847" width="740" height="150" filterUnits="userSpaceOnUse" color-interpolation-filters="sRGB">
<feFlood flood-opacity="0" result="BackgroundImageFix"/>
<feColorMatrix in="SourceAlpha" type="matrix" values="0 0 0 0 0 0 0 0 0 0 0 0 0 0 0 0 0 0 127 0"/>
<feOffset dy="2"/>
<feGaussianBlur stdDeviation="3"/>
<feColorMatrix type="matrix" values="0 0 0 0 0 0 0 0 0 0 0 0 0 0 0 0 0 0 0.25 0"/>
<feBlend mode="normal" in2="BackgroundImageFix" result="effect1_dropShadow"/>
<feBlend mode="normal" in="SourceGraphic" in2="effect1_dropShadow" result="shape"/>
</filter>
<linearGradient id="paint0_linear" x1="65.9465" y1="135.359" x2="65.9465" y2="28.7201" gradientUnits="userSpaceOnUse">
<stop stop-color="#DC2626"/>
<stop offset="0.9994" stop-color="#F39A86"/>
<stop offset="0.9995" stop-color="#F26239"/>
<stop offset="0.9996" stop-color="#F37742"/>
<stop offset="0.9997" stop-color="#F26D47"/>
<stop offset="0.9998" stop-color="#F26E47"/>
<stop offset="0.9999" stop-color="#F26D46"/>
<stop offset="1" stop-color="#FCA5A5"/>
</linearGradient>
<linearGradient id="paint1_linear" x1="65.5693" y1="39.931" x2="72.0776" y2="23.9105" gradientUnits="userSpaceOnUse">
<stop stop-color="#76BA43"/>
<stop offset="1" stop-color="#0D911B"/>
</linearGradient>
</defs>
</svg>
